# xmcd
#
# Track frame offsets: 
#        150
#        22335
#        38875
#        57130
#        72840
#        97267
#        115517
#        138722
#        159447
#        172830
#        194245
#        218930
#        239925
#        255235
#        276275
#        320035
#
# Disc length: 4509 seconds
#
# Revision: 0
# Processed by: cddbd v1.5.2PL0 Copyright (c) Steve Scherf et al.
# Submitted via: ExactAudioCopy v0.95b2
#
DISCID=fa119b10
DTITLE=Sven Zetterberg - Soul Of A Man 1990-1999
DYEAR=2004
DGENRE=Blues
TTITLE0=My Nerves Gone Bad
TTITLE1=Permanently Blue
TTITLE2=The Chokin Kind
TTITLE3=I'll Never Do You Wrong
TTITLE4=You Know My Love
TTITLE5=What Can A Man Do
TTITLE6=I Need Me Somebody
TTITLE7=People Don't Do Like They Used To Do
TTITLE8=One Day At A Time
TTITLE9=Nine Pound Steel
TTITLE10=You're Breaking My Heart
TTITLE11=Will It Be Me Or Him
TTITLE12=Bloody Tears
TTITLE13=You Took Off With My Life
TTITLE14=Open House At My House
TTITLE15=Living In A Borrowed Time
EXTD=
EXTT0=
EXTT1=
EXTT2=
EXTT3=
EXTT4=
EXTT5=
EXTT6=
EXTT7=
EXTT8=
EXTT9=
EXTT10=
EXTT11=
EXTT12=
EXTT13=
EXTT14=
EXTT15=
PLAYORDER=
